# xmcd
#
# Track frame offsets: 
#        150
#        13914
#        30824
#        45010
#        61657
#
# Disc length: 954 seconds
#
# Revision: 0
# Processed by: cddbd v1.5.2PL0 Copyright (c) Steve Scherf et al.
# Submitted via: ExactAudioCopyFreeDBPlugin 1.0
#
DISCID=2703b805
DTITLE=The Morrisons - Wild Eleanor
DYEAR=2016
DGENRE=Bluegrass
TTITLE0=Wild Eleanor
TTITLE1=One Of Them Days
TTITLE2=Council Chambers
TTITLE3=Strong Woman To Cry
TTITLE4=Pig In A Pen
EXTD=
EXTT0=
EXTT1=
EXTT2=
EXTT3=
EXTT4=
PLAYORDER=
